# Aspose.3D Wavefront OBJ Exporter
# Copyright 2004-2023 Aspose Pty Ltd.
# File created: 10/19/2023 19:29:11


#
# object obj_60536018
#

v 0 0.04571999981999397 -0.01269999984651804
v 0.00264047854579985 0.09651999920606614 -0.01242247410118579
v 0.00264047854579985 0.04571999981999397 -0.01242247410118579
v 0.00516555551439523 0.09651999920606614 -0.01160202734172344
v 0.00516555551439523 0.04571999981999397 -0.01160202734172344
v 0.00746487267315387 0.09651999920606614 -0.01027451548725366
v 0.00746487267315387 0.04571999981999397 -0.01027451548725366
v 0.00943793915212154 0.09651999920606614 -0.00849795900285244
v 0.00943793915212154 0.04571999981999397 -0.00849795900285244
v 0.01099852286279201 0.09651999920606614 -0.00634999992325902
v 0.01099852286279201 0.04571999981999397 -0.00634999992325902
v 0.01207841746509075 0.09651999920606614 -0.00392451602965593
v 0.01207841746509075 0.04571999981999397 -0.00392451602965593
v 0.01263042818754911 0.09651999920606614 -0.00132751150522381
v 0.01263042818754911 0.04571999981999397 -0.00132751150522381
v 0.01263042818754911 0.09651999920606614 0.00132751150522381
v 0.01263042818754911 0.04571999981999397 0.00132751150522381
v 0.01207841746509075 0.09651999920606614 0.00392451602965593
v 0.01207841746509075 0.04571999981999397 0.00392451602965593
v 0.01099852286279201 0.09651999920606614 0.00634999992325902
v 0.01099852286279201 0.04571999981999397 0.00634999992325902
v 0.00943793915212154 0.09651999920606614 0.00849795900285244
v 0.00943793915212154 0.04571999981999397 0.00849795900285244
v 0.00746487267315387 0.09651999920606614 0.01027451548725366
v 0.00746487267315387 0.04571999981999397 0.01027451548725366
v 0.00516555551439523 0.09651999920606614 0.01160202734172344
v 0.00516555551439523 0.04571999981999397 0.01160202734172344
v 0.00264047854579985 0.09651999920606614 0.01242247410118579
v 0.00264047854579985 0.04571999981999397 0.01242247410118579
v 1.734723475976807E-18 0.09651999920606614 0.01269999984651804
v 1.734723475976807E-18 0.04571999981999397 0.01269999984651804
v -0.00264047854579985 0.09651999920606614 0.01242247410118579
v -0.00264047854579985 0.04571999981999397 0.01242247410118579
v -0.00516555551439523 0.09651999920606614 0.01160202734172344
v -0.00516555551439523 0.04571999981999397 0.01160202734172344
v -0.00746487267315387 0.09651999920606614 0.01027451548725366
v -0.00746487267315387 0.04571999981999397 0.01027451548725366
v -0.00943793915212154 0.09651999920606614 0.00849795900285244
v -0.00943793915212154 0.04571999981999397 0.00849795900285244
v -0.01099852286279201 0.09651999920606614 0.00634999992325902
v -0.01099852286279201 0.04571999981999397 0.00634999992325902
v -0.01207841746509075 0.09651999920606614 0.00392451602965593
v -0.01207841746509075 0.04571999981999397 0.00392451602965593
v -0.01263042818754911 0.09651999920606614 0.00132751150522381
v -0.01263042818754911 0.04571999981999397 0.00132751150522381
v -0.01263042818754911 0.09651999920606614 -0.00132751150522381
v -0.01263042818754911 0.04571999981999397 -0.00132751150522381
v -0.01207841746509075 0.09651999920606614 -0.00392451602965593
v -0.01207841746509075 0.04571999981999397 -0.00392451602965593
v -0.01099852286279201 0.09651999920606614 -0.00634999992325902
v -0.01099852286279201 0.04571999981999397 -0.00634999992325902
v -0.00943793915212154 0.09651999920606614 -0.00849795900285244
v -0.00943793915212154 0.04571999981999397 -0.00849795900285244
v -0.00746487267315387 0.09651999920606614 -0.01027451548725366
v -0.00746487267315387 0.04571999981999397 -0.01027451548725366
v -0.00516555551439523 0.09651999920606614 -0.01160202734172344
v -0.00516555551439523 0.04571999981999397 -0.01160202734172344
v -0.00264047854579985 0.09651999920606614 -0.01242247410118579
v -0.00264047854579985 0.04571999981999397 -0.01242247410118579
v 0 0.09651999920606614 -0.01269999984651804
v 0 0.09651999920606614 0
v 0 0.04571999981999397 0
v 4.7704895589362195E-18 0.04571999981999397 0.01269999984651804
# 63 vertices

vn 0.10452856123447418 0 -0.99452185630798336
vn 0.30901682376861572 0 -0.95105654001235968
vn 0.50000011920928952 0 -0.86602532863616944
vn 0.66913050413131712 0 -0.74314492940902704
vn 0.80901700258255008 0 -0.58778530359268192
vn 0.91354548931121824 0 -0.40673652291297912
vn 0.978147566318512 0 -0.20791181921958924
vn 1 0 0
vn 0.978147566318512 0 0.20791181921958924
vn 0.91354548931121824 0 0.40673652291297912
vn 0.80901700258255008 0 0.58778530359268192
vn 0.66913050413131712 0 0.74314492940902704
vn 0.50000011920928952 0 0.86602532863616944
vn 0.30901682376861572 0 0.95105654001235968
vn 0.10452856123447418 0 0.99452185630798336
vn -0.10452856123447418 0 0.99452185630798336
vn -0.30901682376861572 0 0.95105654001235968
vn -0.50000011920928952 0 0.86602532863616944
vn -0.66913050413131712 0 0.74314492940902704
vn -0.80901700258255008 0 0.58778530359268192
vn -0.91354548931121824 0 0.40673652291297912
vn -0.978147566318512 0 0.20791181921958924
vn -1 0 0
vn -0.978147566318512 0 -0.20791181921958924
vn -0.91354548931121824 0 -0.40673652291297912
vn -0.80901700258255008 0 -0.58778530359268192
vn -0.66913050413131712 0 -0.74314492940902704
vn -0.50000011920928952 0 -0.86602532863616944
vn -0.30901682376861572 0 -0.95105654001235968
vn -0.10452856123447418 0 -0.99452185630798336
vn 0 1 0
vn 0 -1 0
# 32 vertex normals

g obj_60536018
s 1
f 1//1 2//1 3//1
f 3//2 2//2 4//2
f 3//2 4//2 5//2
f 5//3 4//3 6//3
f 5//3 6//3 7//3
f 7//4 6//4 8//4
f 7//4 8//4 9//4
f 9//5 8//5 10//5
f 9//5 10//5 11//5
f 11//6 10//6 12//6
f 11//6 12//6 13//6
f 13//7 12//7 14//7
f 13//7 14//7 15//7
f 15//8 14//8 16//8
f 15//8 16//8 17//8
f 17//9 16//9 18//9
f 17//9 18//9 19//9
f 19//10 18//10 20//10
f 19//10 20//10 21//10
f 21//11 20//11 22//11
f 21//11 22//11 23//11
f 23//12 22//12 24//12
f 23//12 24//12 25//12
f 25//13 24//13 26//13
f 25//13 26//13 27//13
f 27//14 26//14 28//14
f 27//14 28//14 29//14
f 29//15 28//15 30//15
f 29//15 30//15 31//15
f 31//16 30//16 32//16
f 31//16 32//16 33//16
f 33//17 32//17 34//17
f 33//17 34//17 35//17
f 35//18 34//18 36//18
f 35//18 36//18 37//18
f 37//19 36//19 38//19
f 37//19 38//19 39//19
f 39//20 38//20 40//20
f 39//20 40//20 41//20
f 41//21 40//21 42//21
f 41//21 42//21 43//21
f 43//22 42//22 44//22
f 43//22 44//22 45//22
f 45//23 44//23 46//23
f 45//23 46//23 47//23
f 47//24 46//24 48//24
f 47//24 48//24 49//24
f 49//25 48//25 50//25
f 49//25 50//25 51//25
f 51//26 50//26 52//26
f 51//26 52//26 53//26
f 53//27 52//27 54//27
f 53//27 54//27 55//27
f 55//28 54//28 56//28
f 55//28 56//28 57//28
f 57//29 56//29 58//29
f 57//29 58//29 59//29
f 59//30 58//30 60//30
f 59//30 60//30 1//30
f 1//1 60//1 2//1
f 34//31 32//31 61//31
f 61//31 32//31 30//31
f 61//31 30//31 28//31
f 40//31 38//31 61//31
f 61//31 38//31 36//31
f 61//31 36//31 34//31
f 46//31 44//31 61//31
f 61//31 44//31 42//31
f 61//31 42//31 40//31
f 52//31 50//31 61//31
f 61//31 50//31 48//31
f 61//31 48//31 46//31
f 58//31 56//31 61//31
f 61//31 56//31 54//31
f 61//31 54//31 52//31
f 4//31 2//31 61//31
f 61//31 2//31 60//31
f 61//31 60//31 58//31
f 10//31 8//31 61//31
f 61//31 8//31 6//31
f 61//31 6//31 4//31
f 16//31 14//31 61//31
f 61//31 14//31 12//31
f 61//31 12//31 10//31
f 22//31 20//31 61//31
f 61//31 20//31 18//31
f 61//31 18//31 16//31
f 28//31 26//31 61//31
f 61//31 26//31 24//31
f 61//31 24//31 22//31
f 27//32 29//32 62//32
f 62//32 29//32 63//32
f 62//32 63//32 33//32
f 21//32 23//32 62//32
f 62//32 23//32 25//32
f 62//32 25//32 27//32
f 15//32 17//32 62//32
f 62//32 17//32 19//32
f 62//32 19//32 21//32
f 9//32 11//32 62//32
f 62//32 11//32 13//32
f 62//32 13//32 15//32
f 3//32 5//32 62//32
f 62//32 5//32 7//32
f 62//32 7//32 9//32
f 57//32 59//32 62//32
f 62//32 59//32 1//32
f 62//32 1//32 3//32
f 51//32 53//32 62//32
f 62//32 53//32 55//32
f 62//32 55//32 57//32
f 45//32 47//32 62//32
f 62//32 47//32 49//32
f 62//32 49//32 51//32
f 39//32 41//32 62//32
f 62//32 41//32 43//32
f 62//32 43//32 45//32
f 33//32 35//32 62//32
f 62//32 35//32 37//32
f 62//32 37//32 39//32
#120 polygons

